<?xml version="1.0" standalone="no"?>
<!DOCTYPE svg PUBLIC "-//W3C//DTD SVG 20010904//EN"
 "http://www.w3.org/TR/2001/REC-SVG-20010904/DTD/svg10.dtd">
<svg version="1.0" xmlns="http://www.w3.org/2000/svg"
 width="5855.000000pt" height="5855.000000pt" viewBox="0 0 5855.000000 5855.000000"
 preserveAspectRatio="xMidYMid meet">
<metadata>
Created by potrace 1.14, written by Peter Selinger 2001-2017
</metadata>
<g transform="translate(0.000000,5855.000000) scale(0.100000,-0.100000)"
fill="#000000" stroke="none">
<path d="M28939 46977 c-121 -45 -201 -147 -214 -272 -3 -22 -7 -87 -10 -145
-3 -58 -8 -136 -10 -175 -6 -93 -13 -199 -20 -315 -7 -125 -14 -246 -20 -345
-3 -44 -7 -118 -10 -165 -9 -158 -15 -255 -20 -335 -3 -44 -7 -118 -10 -165
-10 -179 -15 -277 -20 -345 -3 -39 -7 -106 -10 -150 -12 -222 -19 -346 -30
-520 -34 -546 -35 -568 -20 -626 30 -114 116 -196 232 -222 62 -14 77 -14 138
-3 87 17 179 86 217 164 12 26 23 52 25 57 9 40 12 73 18 170 9 165 14 250 21
355 8 124 11 183 18 310 3 58 8 139 11 180 10 157 18 286 17 304 -1 17 7 18
146 11 81 -4 161 -8 177 -10 17 -2 89 -7 160 -10 72 -4 153 -9 180 -10 193
-13 257 -17 314 -20 158 -8 328 -18 346 -20 11 -1 36 -3 56 -4 36 -1 36 -2 33
-38 -2 -21 -6 -92 -9 -158 -4 -66 -8 -140 -10 -165 -2 -25 -6 -97 -9 -160 -3
-64 -8 -140 -10 -170 -3 -30 -8 -111 -11 -180 -3 -69 -8 -145 -10 -170 -3 -25
-7 -102 -10 -171 -5 -135 6 -191 48 -254 41 -60 123 -120 179 -130 154 -30
285 23 360 145 35 58 44 104 53 290 4 69 8 150 10 180 2 30 7 102 10 160 3 58
7 132 10 165 2 33 7 112 10 175 3 63 8 138 10 165 2 28 7 102 10 165 3 63 8
138 10 165 2 28 7 102 10 165 3 63 8 147 10 185 3 39 7 111 10 160 3 50 7 124
10 165 5 83 12 201 20 330 6 112 13 225 20 335 3 50 8 122 10 160 2 39 7 122
11 185 13 222 9 269 -30 335 -55 93 -143 150 -249 161 -109 12 -214 -34 -283
-124 -45 -59 -62 -122 -69 -257 -3 -60 -7 -137 -10 -170 -2 -33 -7 -103 -10
-155 -3 -52 -7 -126 -10 -165 -2 -38 -7 -119 -10 -180 -3 -60 -8 -135 -10
-165 -2 -30 -7 -109 -10 -175 -4 -66 -8 -131 -10 -145 -2 -24 -5 -25 -61 -23
-32 1 -95 4 -139 7 -44 3 -127 8 -185 11 -58 3 -130 7 -160 10 -30 2 -102 6
-160 10 -58 3 -141 7 -185 10 -44 3 -118 7 -165 10 -47 3 -134 8 -195 12 -60
3 -122 7 -137 7 -30 0 -28 -23 -14 211 3 44 8 121 11 170 3 50 7 128 10 175 7
117 14 241 20 325 27 417 26 464 -7 537 -32 69 -88 126 -154 158 -60 28 -181
37 -235 17z"/>
<path d="M32507 46659 c-56 -13 -96 -36 -143 -85 -75 -75 -64 -36 -190 -679
-2 -11 -8 -42 -14 -70 -5 -27 -12 -61 -14 -75 -3 -14 -21 -106 -41 -205 -19
-99 -38 -196 -41 -215 -3 -19 -7 -37 -9 -40 -2 -3 -6 -26 -10 -50 -3 -25 -10
-61 -15 -80 -5 -19 -12 -51 -15 -70 -3 -19 -10 -55 -15 -80 -5 -25 -12 -56
-14 -70 -7 -41 -75 -387 -98 -495 -11 -55 -22 -109 -24 -120 -1 -11 -21 -112
-43 -225 -23 -113 -44 -218 -47 -235 -3 -16 -11 -59 -19 -95 -8 -36 -16 -78
-19 -95 -2 -16 -21 -111 -41 -210 -20 -99 -37 -205 -37 -235 0 -117 63 -217
172 -274 39 -20 83 -32 230 -60 14 -3 50 -10 80 -15 30 -6 66 -13 80 -16 14
-2 45 -9 70 -14 25 -6 59 -12 75 -15 17 -2 50 -9 75 -15 25 -5 61 -13 80 -16
19 -3 123 -24 230 -45 214 -43 238 -47 290 -56 19 -3 38 -8 41 -10 3 -2 21 -6
40 -9 19 -3 57 -10 84 -15 28 -5 61 -12 75 -14 14 -2 95 -19 180 -36 188 -39
249 -43 309 -23 148 50 234 178 225 331 -6 106 -84 221 -178 263 -33 14 -215
55 -416 93 -41 7 -294 58 -315 62 -18 4 -48 10 -145 28 -45 8 -544 107 -568
112 -20 4 -22 9 -17 32 3 15 8 38 10 52 3 14 32 165 66 335 33 171 63 321 65
335 18 103 39 180 48 180 6 0 31 -5 56 -11 25 -6 56 -12 70 -14 14 -2 93 -18
175 -35 83 -17 164 -33 180 -35 17 -3 50 -10 75 -15 25 -5 57 -12 73 -15 29
-5 46 -9 152 -30 39 -8 88 -17 110 -21 22 -3 77 -14 123 -24 45 -10 107 -17
136 -15 109 6 220 82 269 184 31 66 31 197 -1 264 -28 58 -86 119 -142 147
-34 17 -298 78 -457 105 -18 3 -79 15 -135 26 -57 11 -114 22 -128 25 -14 2
-45 9 -70 14 -25 5 -56 12 -70 14 -14 2 -36 7 -50 10 -14 3 -36 8 -50 10 -14
3 -50 10 -80 16 -30 6 -68 13 -85 16 -16 3 -31 7 -34 9 -2 3 10 78 28 167 17
90 34 174 36 188 3 14 12 60 21 103 8 42 17 87 19 100 36 192 74 362 83 365 6
2 82 -11 169 -28 168 -33 190 -38 226 -44 12 -2 33 -7 47 -10 14 -3 36 -8 50
-10 14 -2 59 -11 100 -20 88 -18 117 -24 185 -36 28 -4 71 -13 98 -19 26 -6
64 -14 85 -17 20 -3 39 -7 42 -9 3 -2 26 -6 50 -10 25 -3 61 -10 80 -15 19 -5
53 -11 75 -15 22 -3 56 -10 75 -15 59 -16 132 -24 190 -22 102 4 204 74 258
177 22 43 26 63 26 140 1 105 -20 159 -85 222 -65 63 -104 80 -244 107 -90 17
-816 160 -875 172 -41 9 -86 18 -100 20 -49 9 -437 86 -555 110 -125 25 -175
28 -238 13z"/>
<path d="M24480 46650 c-25 -4 -67 -10 -95 -14 -27 -4 -88 -14 -135 -21 -47
-8 -103 -17 -125 -20 -22 -2 -51 -7 -65 -10 -13 -2 -42 -7 -65 -10 -22 -4 -94
-15 -160 -25 -66 -10 -138 -21 -160 -25 -23 -3 -50 -7 -60 -9 -11 -2 -40 -7
-65 -11 -104 -17 -192 -84 -237 -181 -34 -73 -35 -141 -4 -329 12 -71 24 -146
26 -165 3 -19 7 -46 9 -60 3 -14 8 -42 11 -62 9 -65 16 -112 21 -138 2 -14 9
-55 14 -92 8 -58 27 -179 44 -288 3 -19 15 -93 26 -165 11 -71 22 -141 24
-155 4 -23 23 -146 31 -195 7 -51 18 -122 40 -260 30 -186 39 -246 40 -265 1
-8 5 -33 9 -55 4 -22 11 -67 16 -100 6 -33 12 -73 15 -90 3 -16 8 -50 11 -75
3 -25 8 -54 10 -65 2 -11 7 -38 10 -60 6 -50 13 -92 19 -125 3 -14 7 -41 9
-60 5 -41 13 -95 26 -165 5 -27 11 -71 15 -96 3 -25 8 -57 10 -70 42 -260 52
-289 118 -357 67 -69 115 -87 227 -87 52 0 115 4 140 8 25 5 59 10 75 13 17 2
41 6 55 9 32 6 73 12 130 20 25 3 52 8 60 10 8 2 35 7 60 10 25 2 54 7 65 9
11 2 56 9 100 16 44 7 87 13 95 15 8 2 38 6 65 9 308 41 598 162 846 352 70
53 195 176 234 229 17 22 33 42 36 45 3 3 29 39 56 80 120 179 204 405 248
665 26 155 26 472 -1 680 -8 67 -34 216 -51 289 -8 37 -16 73 -17 80 -15 68
-69 237 -107 335 -33 83 -132 277 -155 302 -8 8 -14 19 -14 23 0 15 -115 161
-183 233 -192 202 -419 339 -685 414 -89 25 -106 29 -252 54 -53 10 -359 13
-410 5z m347 -644 c68 -10 249 -73 319 -112 270 -151 447 -426 537 -834 44
-197 56 -317 52 -515 -4 -173 -6 -189 -36 -310 -47 -184 -117 -312 -239 -435
-47 -47 -94 -92 -106 -100 -145 -105 -273 -160 -439 -190 -122 -22 -149 -26
-215 -35 -37 -5 -128 -19 -321 -51 -25 -4 -26 -3 -42 104 -9 59 -28 179 -42
267 -14 88 -27 176 -30 195 -5 36 -15 100 -21 135 -3 17 -9 55 -19 120 -20
135 -43 280 -59 385 -4 19 -15 96 -26 170 -11 74 -25 160 -30 190 -10 57 -14
86 -25 155 -3 22 -7 51 -10 65 -2 14 -6 43 -10 65 -6 42 -23 152 -30 195 -6
38 -33 210 -40 255 -3 22 -10 67 -15 100 -18 108 -30 97 146 123 172 26 175
27 324 52 102 17 276 20 377 6z"/>
<path d="M22010 46150 c-128 -38 -226 -156 -234 -284 -5 -70 0 -88 129 -496
83 -259 207 -656 209 -665 1 -5 21 -71 45 -145 23 -74 50 -157 58 -185 9 -27
22 -70 30 -95 64 -198 183 -584 180 -586 -2 -2 -71 49 -154 114 -84 64 -207
160 -274 212 -343 265 -687 532 -748 578 -31 24 -65 51 -76 60 -11 9 -59 46
-105 82 -47 35 -87 67 -90 70 -3 3 -43 34 -90 70 -47 36 -204 157 -350 270
-146 113 -295 229 -332 258 -84 65 -171 96 -249 89 -167 -15 -293 -153 -290
-319 0 -38 3 -73 6 -78 4 -7 55 -168 255 -810 27 -85 132 -423 235 -750 103
-327 197 -629 210 -670 13 -41 59 -190 103 -330 45 -140 99 -313 121 -385 48
-152 79 -206 145 -256 199 -151 487 -19 504 231 2 37 0 83 -6 101 -6 19 -151
482 -322 1029 -171 547 -315 1008 -320 1024 -8 22 -7 26 3 18 6 -5 68 -53 137
-106 69 -54 139 -108 155 -121 17 -13 66 -51 110 -85 44 -33 94 -72 110 -85
26 -20 304 -236 847 -657 90 -69 172 -133 183 -142 364 -287 733 -565 775
-584 78 -36 178 -35 254 2 110 54 177 155 181 275 3 67 2 72 -83 341 -46 144
-178 567 -227 725 -24 77 -72 228 -106 335 -34 107 -69 222 -79 255 -10 33
-48 155 -85 270 -36 116 -86 273 -110 350 -24 77 -74 235 -110 350 -36 116
-68 215 -69 220 -8 33 -71 231 -92 290 -48 137 -153 217 -289 221 -38 1 -81
-2 -95 -6z"/>
<path d="M36870 45509 c-78 -27 -114 -56 -204 -160 -29 -34 -152 -173 -171
-195 -5 -6 -32 -37 -60 -69 -75 -86 -126 -145 -351 -401 -34 -38 -144 -163
-245 -279 -165 -190 -359 -411 -428 -490 -15 -16 -127 -145 -250 -285 -123
-140 -235 -269 -250 -285 -14 -17 -57 -66 -96 -110 -38 -44 -90 -103 -115
-130 -47 -53 -57 -64 -179 -205 -81 -94 -109 -148 -117 -226 -7 -63 17 -162
48 -208 108 -156 321 -188 462 -69 18 15 86 89 152 163 65 74 123 140 129 146
5 6 48 54 94 108 46 53 85 96 86 96 5 0 362 -126 610 -214 154 -56 245 -88
545 -194 205 -73 225 -82 226 -103 0 -13 4 -91 8 -174 4 -82 9 -208 11 -280 3
-71 7 -153 10 -183 11 -107 77 -202 177 -253 51 -26 164 -36 223 -20 118 32
222 164 227 289 1 32 -7 301 -17 537 -2 44 -6 166 -9 270 -4 105 -9 226 -11
270 -2 44 -7 157 -10 250 -3 94 -7 215 -10 270 -2 55 -7 177 -10 270 -3 94 -8
217 -10 275 -3 58 -7 168 -10 245 -6 180 -15 431 -20 565 -2 58 -7 179 -10
270 -9 243 -12 272 -31 321 -32 84 -84 140 -162 176 -70 33 -160 38 -232 12z
m-184 -1167 c1 -20 5 -131 9 -247 3 -115 8 -259 10 -320 2 -60 7 -200 10 -310
4 -110 8 -235 10 -277 2 -43 0 -78 -4 -78 -4 0 -34 10 -66 21 -33 12 -121 43
-195 69 -74 26 -205 73 -290 103 -85 30 -197 70 -248 87 l-92 33 47 56 c26 31
66 76 89 101 23 25 101 115 175 200 73 85 146 169 161 185 31 35 25 29 223
254 82 93 152 168 155 165 3 -3 6 -22 6 -42z"/>
<path d="M18592 44934 c-163 -43 -257 -192 -229 -365 5 -27 504 -1210 602
-1426 8 -17 114 -265 235 -550 122 -285 230 -536 240 -558 9 -22 62 -143 116
-270 87 -203 104 -236 146 -278 56 -56 120 -86 197 -92 191 -15 343 133 336
327 -2 60 -17 99 -175 469 -95 222 -183 427 -195 454 -12 28 -224 522 -471
1099 -335 782 -458 1058 -483 1088 -80 93 -203 133 -319 102z"/>
<path d="M39446 44453 c-28 -8 -68 -27 -91 -43 -68 -47 -63 -39 -294 -485 -52
-99 -110 -211 -131 -250 -21 -38 -70 -133 -110 -210 -92 -177 -175 -337 -379
-727 -88 -170 -187 -360 -251 -483 -32 -60 -80 -153 -107 -205 -45 -85 -120
-230 -277 -533 -45 -88 -50 -104 -52 -170 -5 -154 62 -242 256 -341 63 -32
142 -73 175 -91 33 -18 132 -70 220 -115 88 -46 192 -100 230 -120 107 -57
377 -197 500 -259 107 -55 111 -56 195 -56 65 0 96 5 131 21 66 31 121 84 154
151 25 49 29 70 29 133 -1 85 -4 101 -34 159 -31 62 -87 110 -186 162 -94 49
-224 117 -469 244 -82 43 -186 97 -230 120 -44 23 -113 59 -153 80 l-72 37 79
152 c139 267 192 369 251 481 32 61 90 173 130 250 40 77 96 185 125 240 29
55 80 154 115 220 34 66 88 170 120 230 57 108 110 211 265 510 43 83 92 177
110 210 90 166 153 304 158 345 17 135 -65 277 -191 331 -59 26 -152 31 -216
12z"/>
<path d="M17337 44369 c-116 -18 -215 -102 -251 -214 -9 -27 -27 -97 -41 -155
-13 -58 -31 -132 -39 -166 -8 -34 -17 -72 -20 -85 -3 -13 -25 -107 -51 -209
-25 -102 -57 -234 -71 -295 -14 -60 -46 -191 -70 -290 -45 -178 -90 -366 -100
-415 -3 -14 -17 -70 -30 -125 -14 -55 -27 -107 -29 -115 -2 -8 -8 -35 -15 -59
l-12 -44 -32 59 c-18 32 -48 88 -68 124 -19 36 -50 92 -68 125 -18 33 -102
188 -188 345 -85 157 -168 310 -185 340 -17 30 -40 72 -51 92 -29 55 -74 106
-116 133 -163 103 -373 45 -461 -127 -27 -53 -37 -168 -19 -224 7 -22 71 -147
143 -279 151 -278 170 -313 207 -380 15 -27 42 -76 59 -107 35 -65 76 -141
120 -220 16 -29 72 -134 126 -233 54 -99 108 -198 120 -220 43 -77 148 -270
175 -320 50 -94 175 -320 187 -340 7 -11 15 -27 18 -35 8 -19 13 -29 76 -141
52 -95 84 -152 140 -256 18 -32 42 -76 54 -98 12 -22 43 -80 70 -130 60 -113
80 -143 119 -178 78 -71 173 -94 292 -73 65 12 165 91 200 158 26 50 41 140
32 200 -7 56 -15 74 -169 356 -29 52 -60 109 -116 212 -17 30 -57 105 -91 165
-33 61 -71 130 -84 155 -13 25 -57 105 -97 178 -40 74 -71 135 -69 137 2 2 53
-13 113 -35 61 -21 331 -115 600 -208 270 -94 537 -187 595 -207 559 -195 613
-212 681 -211 84 2 162 39 222 106 124 138 96 364 -58 470 -25 17 -91 47 -148
67 -101 35 -485 167 -767 265 -80 27 -163 55 -185 63 -22 7 -159 54 -305 105
-146 50 -300 103 -343 118 l-78 26 6 36 c4 19 44 188 90 375 46 187 107 435
135 550 28 116 53 218 56 228 2 9 6 25 8 35 9 37 108 438 111 452 31 118 42
201 33 250 -32 178 -189 294 -361 269z"/>
<path d="M41313 43475 c-66 -15 -133 -55 -176 -105 -101 -119 -97 -312 9 -424
25 -27 218 -156 477 -320 59 -37 107 -71 107 -73 0 -3 -20 -36 -45 -74 -25
-38 -45 -73 -45 -78 0 -5 -4 -11 -8 -13 -4 -1 -76 -109 -159 -238 -83 -129
-260 -404 -393 -610 -133 -206 -263 -408 -288 -448 -26 -40 -74 -114 -107
-165 -98 -152 -165 -255 -243 -377 -41 -63 -89 -137 -107 -165 -178 -272 -193
-303 -196 -387 -9 -266 282 -422 504 -270 48 34 49 35 282 397 82 127 156 241
165 255 18 26 138 213 155 242 6 9 22 34 36 55 14 21 49 74 77 118 28 44 125
195 216 335 150 233 219 340 433 673 40 61 76 117 81 123 5 5 15 20 21 32 7
12 46 74 87 137 l74 114 43 -28 c213 -142 511 -328 549 -342 63 -25 176 -20
238 8 68 32 126 87 157 151 23 48 28 70 28 137 0 94 -28 166 -87 225 -28 28
-224 161 -346 235 -10 6 -53 34 -97 62 -125 81 -271 175 -385 249 -323 208
-585 377 -711 459 -170 111 -241 133 -346 110z"/>
<path d="M14351 42644 c-53 -14 -97 -39 -137 -78 -30 -30 -74 -99 -80 -127
-24 -97 -18 -172 16 -240 15 -28 241 -339 287 -394 45 -53 1034 -1378 1031
-1381 -2 -2 -29 5 -59 15 -30 11 -292 98 -584 194 -291 96 -881 291 -1310 433
-634 209 -792 258 -842 260 -124 5 -238 -67 -294 -185 -31 -64 -32 -187 -3
-251 17 -36 86 -137 142 -205 4 -5 360 -480 792 -1055 431 -575 845 -1126 920
-1225 131 -175 137 -181 204 -214 58 -29 79 -34 140 -34 218 -1 371 214 301
422 -13 38 -83 142 -208 305 -12 16 -93 124 -180 240 -87 116 -169 225 -183
243 -83 105 -763 1017 -761 1020 3 3 757 -242 792 -257 11 -5 378 -127 815
-271 437 -144 874 -288 970 -320 155 -51 182 -57 241 -54 260 13 389 321 222
525 -14 17 -148 194 -178 236 -34 47 -275 368 -288 384 -7 8 -249 330 -538
715 -933 1244 -916 1222 -961 1253 -79 54 -173 70 -267 46z"/>
<path d="M28573 41879 c-98 -40 -461 -216 -583 -284 -253 -141 -528 -320 -755
-489 -79 -59 -325 -254 -335 -265 -3 -3 -43 -39 -90 -80 -94 -82 -421 -408
-517 -513 -370 -411 -705 -910 -959 -1428 -142 -289 -287 -656 -363 -915 -18
-60 -37 -121 -42 -135 -9 -25 -74 -276 -83 -321 -3 -13 -10 -46 -16 -74 -5
-27 -13 -61 -15 -75 -3 -14 -10 -45 -15 -70 -14 -66 -38 -207 -46 -265 -3 -27
-8 -57 -9 -66 -2 -9 -6 -40 -10 -70 -3 -30 -8 -65 -10 -79 -2 -14 -6 -50 -9
-80 -3 -30 -8 -89 -12 -130 -12 -136 -13 -153 -18 -414 -3 -143 -7 -260 -8
-261 -2 -2 -68 47 -148 107 -217 163 -482 339 -685 453 -87 48 -406 210 -494
249 -347 156 -844 320 -1170 387 -76 15 -254 49 -290 55 -18 3 -41 7 -50 9 -9
1 -41 6 -71 10 -30 4 -63 9 -74 11 -10 2 -44 6 -75 9 -31 4 -67 8 -81 10 -14
2 -61 7 -105 10 -44 4 -96 8 -115 11 -19 2 -152 7 -296 11 l-261 6 -60 -84
c-406 -573 -736 -1227 -963 -1909 -59 -176 -147 -478 -164 -560 -3 -14 -7 -34
-10 -45 -37 -159 -46 -198 -51 -227 -3 -18 -14 -78 -25 -133 -11 -55 -22 -118
-25 -140 -45 -301 -47 -316 -50 -356 -5 -53 -15 -159 -20 -199 -5 -37 -13
-171 -20 -330 -5 -108 -5 -497 -1 -610 5 -106 17 -290 21 -320 2 -14 7 -59 10
-100 3 -41 8 -86 10 -100 2 -14 6 -47 10 -75 9 -82 30 -225 50 -340 3 -16 7
-43 10 -60 3 -16 7 -41 10 -55 3 -14 10 -47 15 -75 20 -103 37 -176 63 -287
14 -54 21 -98 17 -98 -4 0 -41 11 -81 23 -67 21 -152 46 -339 97 -62 17 -121
31 -137 32 -5 0 -19 4 -32 9 -13 5 -65 19 -115 30 -50 11 -99 23 -108 25 -40
9 -60 13 -203 43 -82 16 -163 32 -180 35 -16 3 -70 12 -120 21 -49 9 -135 23
-190 30 -55 8 -115 17 -133 20 -18 3 -54 7 -80 10 -50 6 -105 13 -162 20 -19
2 -60 7 -90 10 -30 3 -71 8 -90 10 -19 2 -73 7 -120 10 -47 3 -98 8 -115 10
-176 26 -1237 26 -1465 0 -14 -1 -34 -3 -45 -4 -22 -1 -22 1 -92 -266 -29
-111 -91 -373 -107 -455 -14 -70 -55 -290 -60 -325 -4 -22 -13 -78 -21 -125
-7 -47 -16 -107 -20 -135 -3 -27 -8 -61 -10 -75 -16 -109 -27 -214 -40 -370
-3 -41 -8 -93 -10 -115 -28 -250 -33 -900 -10 -1235 13 -188 16 -237 20 -270
2 -19 7 -62 10 -95 3 -33 8 -76 10 -95 3 -19 7 -60 10 -90 4 -30 13 -100 21
-155 9 -55 17 -113 20 -130 6 -48 24 -160 30 -189 2 -11 7 -34 9 -51 5 -26 38
-196 49 -250 40 -192 99 -428 159 -632 41 -144 43 -151 23 -147 -12 2 -41 6
-66 9 -25 3 -56 8 -70 10 -36 7 -78 13 -135 20 -27 3 -63 8 -80 10 -54 7 -149
18 -170 20 -11 1 -51 5 -90 9 -38 4 -88 9 -110 11 -22 3 -67 7 -100 9 -185 14
-235 17 -280 21 -233 20 -1083 27 -1380 11 -88 -5 -182 -10 -210 -11 -27 -1
-84 -6 -125 -9 -41 -4 -102 -9 -135 -11 -33 -3 -80 -7 -105 -10 -25 -2 -74 -7
-110 -10 -36 -4 -76 -8 -90 -10 -14 -2 -54 -6 -90 -10 -36 -3 -76 -8 -90 -10
-14 -2 -45 -7 -70 -10 -74 -9 -171 -23 -210 -30 -14 -2 -45 -7 -70 -10 -25 -4
-58 -8 -75 -11 -16 -3 -41 -7 -55 -9 -39 -5 -260 -44 -310 -55 -25 -5 -58 -12
-75 -15 -55 -9 -433 -91 -505 -110 -8 -2 -22 -4 -31 -4 -33 -2 -49 -27 -64
-101 -8 -41 -16 -84 -19 -95 -18 -88 -41 -225 -51 -310 -3 -27 -8 -59 -10 -70
-2 -11 -6 -49 -10 -85 -3 -36 -8 -83 -10 -105 -23 -233 -24 -812 0 -965 2 -14
6 -56 10 -95 3 -38 8 -81 10 -95 2 -14 7 -45 10 -70 21 -150 22 -158 56 -325
159 -790 506 -1538 1013 -2180 39 -49 73 -92 76 -95 3 -3 32 -36 65 -75 121
-142 360 -386 487 -498 36 -32 81 -71 100 -88 18 -16 87 -71 152 -122 65 -51
128 -99 139 -108 19 -15 15 -17 -79 -34 -435 -77 -989 -247 -1372 -421 -29
-13 -55 -24 -57 -24 -13 0 -397 -197 -502 -256 -642 -367 -1235 -876 -1654
-1419 -29 -38 -56 -72 -59 -75 -28 -24 -380 -548 -380 -565 0 -2 -23 -43 -51
-92 -47 -79 -229 -436 -229 -447 0 -2 -15 -37 -34 -78 -60 -131 -127 -308
-203 -537 -85 -256 -85 -223 4 -359 304 -465 649 -856 1068 -1209 160 -134
432 -329 606 -432 122 -74 217 -126 349 -192 135 -67 186 -91 275 -129 11 -4
36 -15 56 -24 96 -42 341 -128 534 -187 62 -18 245 -66 280 -73 11 -2 40 -9
65 -16 25 -7 59 -14 75 -17 17 -2 37 -6 45 -9 8 -3 26 -8 40 -11 14 -2 59 -11
100 -19 41 -8 86 -17 100 -19 14 -2 93 -15 175 -28 137 -23 180 -29 285 -43
19 -2 49 -6 65 -9 49 -8 95 -13 195 -25 52 -6 109 -13 125 -15 65 -8 205 -25
250 -30 17 -2 65 -6 108 -10 43 -4 88 -8 100 -10 12 -2 69 -7 127 -10 58 -4
130 -8 160 -11 418 -29 1104 -19 1525 21 28 3 73 7 100 10 70 6 155 16 185 20
14 2 52 7 85 10 33 4 87 10 120 15 33 5 80 12 105 15 25 3 56 8 70 10 14 3 41
7 60 10 19 3 46 7 60 10 14 3 41 7 60 10 19 3 58 10 85 15 28 5 64 11 80 14
197 30 233 47 330 157 176 198 197 494 51 711 -69 103 -161 190 -194 183 -9
-1 -46 -6 -82 -10 -36 -4 -72 -8 -80 -10 -8 -2 -49 -6 -90 -10 -41 -3 -86 -8
-100 -10 -14 -2 -54 -6 -90 -10 -36 -3 -90 -7 -120 -10 -383 -34 -722 -48
-1145 -48 -265 0 -639 9 -725 18 -19 2 -96 6 -170 10 -74 3 -160 8 -190 10
-30 2 -93 7 -140 10 -224 15 -260 18 -380 30 -25 3 -94 10 -155 15 -60 6 -121
13 -135 15 -14 2 -47 6 -75 10 -27 3 -61 8 -75 10 -14 2 -45 6 -70 9 -25 3
-72 11 -105 17 -33 6 -72 12 -88 15 -84 12 -363 73 -452 99 -218 62 -429 131
-520 170 -16 7 -70 30 -120 50 -433 180 -885 464 -1282 803 -152 130 -453 425
-453 445 0 33 142 364 237 552 57 112 62 120 141 260 98 173 319 493 442 639
112 133 184 211 315 341 177 177 189 187 365 328 337 271 746 505 1150 660
400 154 812 245 1285 283 171 14 706 7 825 -11 14 -2 52 -6 85 -10 58 -5 112
-12 165 -20 14 -2 45 -6 70 -10 81 -12 313 -56 400 -77 47 -11 94 -21 105 -24
11 -2 79 -19 150 -39 270 -74 603 -193 814 -291 91 -43 133 -57 196 -68 17 -3
41 -8 55 -11 46 -9 174 -7 240 5 126 22 242 69 345 140 41 28 140 129 162 165
120 192 108 404 -36 610 -41 59 -166 182 -192 190 -11 4 -19 11 -19 16 0 5 -5
9 -10 9 -6 0 -27 10 -48 23 -57 36 -168 76 -256 93 -29 5 -101 13 -191 19 -44
3 -105 10 -135 15 -30 5 -72 11 -92 14 -97 15 -114 17 -128 21 -8 2 -31 7 -50
10 -19 3 -94 19 -166 36 -73 16 -140 31 -150 33 -11 3 -53 14 -94 26 -41 12
-91 26 -110 31 -147 41 -487 167 -655 242 -83 37 -355 175 -405 205 -19 12
-53 31 -75 43 -72 38 -402 262 -486 330 -699 561 -1169 1243 -1430 2079 -46
147 -104 379 -124 495 -3 17 -7 39 -9 50 -2 11 -7 40 -11 65 -4 25 -9 52 -10
60 -2 8 -6 42 -9 75 -4 33 -9 74 -11 90 -25 171 -37 647 -21 800 2 22 4 54 5
71 1 28 5 33 44 43 23 6 52 14 65 16 13 2 32 7 42 10 10 3 27 8 37 10 10 2 70
15 133 29 63 14 128 27 144 30 16 3 52 10 80 16 83 17 96 19 206 35 58 9 116
18 130 20 14 2 48 6 75 9 28 3 70 8 95 12 25 3 59 7 75 9 17 2 66 7 110 10 44
4 96 9 115 11 230 24 1175 24 1415 0 22 -3 78 -7 125 -10 92 -7 158 -13 205
-21 17 -3 50 -7 75 -10 91 -12 338 -58 430 -81 52 -14 105 -27 117 -29 119
-27 416 -137 586 -218 187 -89 458 -254 558 -339 15 -13 44 -36 65 -53 106
-83 268 -257 455 -490 57 -71 111 -139 120 -150 634 -785 1562 -1470 2569
-1897 52 -22 115 -49 139 -60 343 -155 706 -85 817 156 58 128 55 310 -8 476
-74 193 -256 380 -439 449 -46 18 -98 39 -116 47 -17 8 -34 14 -38 14 -3 0
-25 8 -48 19 -23 10 -91 40 -152 67 -562 246 -1127 608 -1605 1029 -78 69
-431 426 -490 495 -35 41 -66 77 -70 80 -19 14 -248 313 -326 426 -104 151
-180 267 -210 319 -6 11 -43 74 -81 141 -385 662 -675 1544 -784 2379 -17 133
-18 139 -34 285 -2 19 -7 73 -10 120 -4 47 -8 104 -10 127 -22 253 -21 909 0
1097 3 23 7 75 10 116 7 103 14 171 30 298 3 23 7 61 10 85 14 104 18 130 31
190 6 31 -12 29 249 29 145 1 412 -9 475 -17 14 -1 65 -6 115 -10 49 -3 92 -8
95 -10 3 -1 34 -6 70 -9 36 -4 92 -11 125 -16 117 -18 138 -22 159 -26 11 -2
46 -8 76 -14 99 -18 116 -22 190 -39 25 -5 57 -12 71 -15 46 -8 260 -66 379
-102 463 -142 790 -286 1265 -554 130 -73 595 -393 625 -429 3 -3 39 -33 80
-66 144 -115 220 -184 420 -385 161 -161 262 -269 336 -360 16 -19 31 -37 34
-40 3 -3 21 -25 40 -50 19 -25 37 -47 41 -50 6 -5 137 -181 178 -240 222 -316
444 -705 571 -1000 18 -41 40 -93 50 -115 35 -78 68 -161 99 -250 46 -127 60
-151 115 -198 138 -118 280 -171 450 -169 258 3 473 195 521 464 19 105 11
198 -30 353 -21 77 -40 154 -45 170 -27 111 -172 510 -243 670 -55 125 -208
425 -264 519 -30 50 -62 104 -71 119 -9 16 -55 86 -101 155 -385 584 -901
1099 -1491 1488 -74 49 -165 107 -202 129 -38 21 -68 42 -68 46 0 4 -22 53
-49 110 -242 515 -426 1173 -490 1754 -6 55 -14 118 -16 140 -26 224 -26 822
0 1031 2 16 6 61 10 99 6 71 12 120 20 165 3 14 7 48 10 75 4 28 8 57 10 65 2
8 7 35 10 60 31 219 141 638 252 955 92 260 275 670 387 862 18 32 44 78 58
103 54 98 141 230 151 230 56 0 712 -194 812 -240 11 -5 62 -25 113 -45 325
-125 640 -280 1027 -505 224 -130 574 -378 810 -574 344 -286 670 -616 934
-946 51 -63 99 -123 107 -133 79 -97 301 -420 415 -604 48 -78 173 -299 195
-345 18 -39 38 -50 149 -83 75 -22 243 -14 320 15 277 105 410 387 319 675
-10 33 -114 221 -241 437 -123 209 -223 382 -223 384 0 3 -9 17 -19 32 -10 15
-58 95 -106 177 -49 83 -114 193 -145 246 -65 109 -67 113 -85 287 -18 177
-25 261 -31 386 -4 98 -4 499 1 581 7 125 16 263 20 300 17 151 43 346 50 385
3 13 7 40 10 60 3 20 8 47 10 60 3 14 8 38 11 54 70 388 218 875 369 1221 7
17 26 59 41 95 55 125 211 426 294 565 72 121 273 430 290 445 3 3 38 49 78
102 451 607 1110 1182 1794 1567 l57 32 143 -94 c79 -52 181 -122 228 -156 47
-33 96 -69 110 -78 79 -55 328 -254 435 -347 38 -34 85 -74 104 -91 265 -232
605 -593 841 -895 191 -245 442 -619 542 -810 10 -19 30 -55 44 -80 34 -58
233 -454 274 -545 231 -504 355 -876 415 -1242 45 -276 57 -517 42 -798 -4
-72 -9 -139 -11 -150 -2 -11 -7 -45 -11 -75 -11 -86 -21 -155 -36 -230 -9 -44
-36 -157 -64 -270 -22 -90 -79 -255 -132 -389 -142 -356 -347 -706 -593 -1012
l-100 -124 0 -65 c1 -315 169 -600 394 -665 248 -72 566 104 712 395 34 68 72
183 80 239 8 59 23 92 105 221 345 549 771 1024 1274 1419 72 56 138 109 148
117 9 7 21 14 26 14 5 0 11 3 13 8 9 20 285 199 474 308 409 235 841 415 1287
538 31 9 81 23 110 31 28 8 86 22 127 31 41 8 84 17 95 20 48 10 183 35 215
40 19 3 41 7 48 9 7 3 40 7 75 11 34 3 64 8 68 10 3 1 37 6 76 9 l70 7 60
-163 c219 -597 398 -1280 478 -1824 6 -38 9 -54 19 -120 2 -16 7 -52 11 -80 3
-27 8 -63 10 -80 6 -47 24 -204 29 -265 3 -30 8 -77 11 -105 2 -27 7 -99 11
-160 3 -60 8 -141 10 -180 6 -105 6 -625 0 -745 -10 -190 -29 -429 -41 -510
-2 -14 -9 -61 -15 -106 -6 -44 -12 -89 -14 -100 -2 -10 -7 -39 -11 -64 -13
-78 -16 -93 -36 -185 -115 -522 -288 -854 -619 -1186 -120 -120 -232 -212
-480 -394 -155 -114 -346 -260 -360 -275 -3 -3 -40 -36 -83 -73 -313 -277
-555 -592 -747 -972 -87 -171 -104 -212 -170 -385 -75 -198 -141 -430 -185
-645 -9 -44 -18 -88 -20 -98 -8 -38 -45 -274 -54 -342 -13 -105 -6 -191 23
-279 100 -298 344 -460 583 -388 173 53 330 216 392 407 25 77 33 122 36 216
2 69 6 83 50 165 26 49 59 106 72 126 12 21 23 39 23 42 0 11 274 443 312 491
5 6 56 75 115 155 98 133 241 313 319 400 118 133 160 178 264 285 187 191
400 388 518 479 15 11 29 23 32 26 3 3 56 46 119 94 411 318 907 606 1362 791
63 25 123 50 134 54 202 85 747 246 935 277 14 2 36 7 50 10 14 3 36 8 50 10
14 2 34 6 46 9 12 3 39 7 60 10 21 3 64 10 94 15 66 11 108 17 175 25 28 4 61
8 74 10 13 2 58 7 100 10 42 3 92 8 111 10 115 15 557 28 564 17 4 -6 54 -240
72 -337 4 -22 8 -42 9 -45 0 -3 4 -27 9 -53 4 -27 9 -56 10 -65 2 -10 7 -39
10 -65 4 -27 9 -56 11 -65 1 -10 6 -39 9 -67 4 -27 9 -61 11 -75 17 -113 39
-352 52 -565 13 -219 6 -802 -11 -891 -2 -10 -7 -57 -10 -104 -4 -47 -9 -96
-11 -110 -3 -14 -7 -43 -10 -65 -4 -38 -11 -90 -20 -145 -3 -14 -7 -43 -11
-65 -5 -37 -39 -212 -49 -260 -3 -11 -7 -29 -9 -40 -2 -11 -14 -58 -26 -105
-12 -47 -23 -89 -24 -95 -36 -159 -156 -495 -259 -725 -197 -442 -522 -935
-875 -1325 -267 -296 -507 -536 -807 -809 -66 -60 -145 -132 -176 -160 -70
-64 -83 -75 -249 -214 -495 -415 -1009 -769 -1657 -1141 -226 -130 -316 -463
-184 -681 95 -158 273 -250 468 -244 90 3 137 16 241 65 45 21 84 39 87 39 21
0 576 269 755 366 337 182 717 416 1010 622 73 52 412 303 420 312 3 3 52 43
110 90 99 79 355 296 390 330 9 8 72 67 140 130 325 301 682 683 950 1017 61
76 115 133 132 141 123 53 880 240 1085 267 21 2 49 7 63 10 14 3 45 8 70 11
25 3 52 7 60 9 8 2 29 6 45 9 66 10 132 18 160 21 29 3 174 21 245 30 19 2 64
7 100 10 36 2 85 7 110 9 294 29 1089 29 1390 1 25 -3 74 -7 110 -10 111 -9
164 -14 200 -19 19 -3 58 -8 85 -11 101 -12 385 -54 405 -60 8 -3 33 -7 55
-10 22 -3 51 -8 65 -11 14 -2 36 -6 49 -9 13 -2 26 -7 30 -11 16 -16 4 -771
-14 -864 -2 -10 -6 -47 -10 -82 -7 -71 -6 -67 -35 -237 -12 -69 -23 -127 -25
-130 -1 -3 -6 -24 -9 -46 -14 -87 -79 -334 -130 -488 -196 -595 -488 -1107
-901 -1577 -150 -171 -436 -434 -631 -581 -153 -116 -414 -290 -484 -323 -8
-3 -46 -25 -85 -47 -128 -73 -406 -206 -580 -276 -259 -105 -713 -246 -890
-277 -16 -3 -73 -14 -125 -25 -107 -22 -250 -47 -325 -56 -47 -6 -66 -8 -147
-19 -18 -3 -76 -8 -128 -11 -112 -8 -148 -17 -213 -53 -319 -181 -390 -580
-149 -843 67 -72 141 -121 240 -156 101 -36 166 -34 377 16 99 24 187 44 195
46 8 2 35 8 60 15 25 7 54 13 65 15 11 1 30 5 42 9 12 4 30 8 40 10 10 2 88
20 173 40 85 20 164 38 175 41 79 17 283 65 295 69 8 3 26 7 40 10 14 2 135
30 270 61 135 31 252 58 260 60 8 2 53 12 100 24 74 18 459 107 500 116 8 2
38 9 65 15 28 6 57 13 66 15 9 2 33 8 52 13 20 6 37 9 39 7 2 -1 35 -6 74 -9
39 -4 82 -9 95 -12 13 -2 44 -7 69 -10 184 -22 510 -93 756 -164 483 -141
1006 -385 1431 -671 421 -282 874 -701 1145 -1060 20 -27 42 -55 50 -63 7 -7
20 -23 28 -36 8 -12 36 -50 63 -85 26 -35 47 -68 47 -73 0 -6 4 -12 8 -14 8
-3 83 -109 107 -150 5 -10 46 -77 90 -150 77 -129 247 -456 294 -568 13 -30
29 -68 36 -85 16 -34 14 -37 -79 -124 -28 -25 -57 -53 -66 -61 -215 -203 -616
-509 -886 -677 -76 -47 -262 -158 -324 -193 -196 -110 -608 -300 -805 -370
-33 -12 -69 -25 -80 -30 -67 -30 -520 -169 -596 -183 -13 -3 -49 -12 -79 -20
-30 -9 -82 -21 -115 -28 -33 -7 -62 -13 -65 -14 -29 -7 -71 -16 -95 -20 -150
-27 -317 -55 -350 -59 -271 -35 -282 -36 -450 -51 -286 -25 -980 -26 -1195 0
-19 2 -69 7 -110 10 -41 3 -91 8 -110 10 -19 3 -57 7 -85 10 -27 3 -66 7 -85
10 -19 3 -53 7 -75 10 -61 7 -138 19 -325 50 -25 4 -106 20 -146 29 -12 2 -37
7 -55 10 -19 3 -43 8 -54 10 -32 7 -107 24 -140 32 -16 4 -72 8 -122 10 -365
11 -643 -306 -558 -637 33 -129 127 -260 236 -330 58 -37 184 -74 389 -115 14
-3 65 -14 113 -25 48 -10 105 -22 125 -25 20 -3 43 -7 50 -9 7 -3 70 -14 140
-25 183 -30 220 -36 298 -45 22 -3 57 -8 79 -10 70 -10 108 -14 175 -21 36 -3
79 -8 95 -10 17 -1 71 -6 120 -9 50 -3 108 -8 130 -10 168 -16 576 -21 860
-10 214 8 231 9 370 20 145 12 148 12 200 19 28 3 73 8 100 11 28 3 61 7 75
10 14 2 49 7 79 10 30 4 61 8 70 10 21 4 123 19 136 20 6 1 24 4 40 8 17 3 46
9 65 11 19 3 44 8 55 10 11 2 70 14 130 25 419 81 927 234 1395 419 14 5 27 9
30 9 3 -1 19 6 35 15 17 8 41 20 55 26 496 207 1061 523 1525 855 77 55 142
103 145 106 3 3 41 33 85 65 44 33 82 62 85 66 3 3 37 30 75 60 39 30 84 67
100 81 226 197 293 257 369 329 122 116 383 382 402 408 15 22 4 63 -94 328
-76 207 -281 652 -382 829 -56 100 -147 254 -175 297 -16 26 -52 82 -79 125
-155 245 -460 638 -665 857 -419 448 -814 774 -1356 1121 -16 11 -39 25 -50
31 -11 6 -54 31 -95 56 -210 125 -466 254 -765 383 -65 29 -235 94 -335 130
-58 20 -114 41 -125 46 -26 11 -237 74 -350 105 -49 14 -94 26 -98 27 -4 1 34
38 85 82 142 122 411 394 537 545 143 171 129 154 225 284 308 416 548 865
719 1347 47 133 129 397 142 455 2 11 17 80 34 154 16 74 32 149 35 165 47
284 46 277 61 420 3 33 8 74 10 90 23 173 23 740 0 920 -2 17 -7 57 -10 90 -4
33 -9 78 -11 100 -6 51 -33 232 -39 265 -3 14 -12 63 -21 110 -17 90 -60 269
-66 275 -3 3 -224 77 -243 82 -5 1 -62 18 -125 37 -103 31 -250 72 -290 81 -8
2 -71 17 -140 34 -108 26 -307 68 -405 85 -29 6 -49 9 -105 21 -52 10 -248 39
-345 51 -22 2 -54 7 -71 9 -16 3 -57 8 -90 11 -32 3 -70 7 -83 9 -14 3 -68 7
-120 11 -53 3 -112 8 -131 10 -227 23 -943 22 -1165 -1 -22 -2 -76 -7 -120
-10 -44 -4 -93 -8 -110 -10 -57 -8 -120 -15 -170 -20 -52 -5 -65 -7 -230 -31
-82 -12 -219 -36 -405 -70 -14 -3 -67 -14 -119 -25 -51 -12 -101 -22 -110 -24
-9 -2 -54 -13 -101 -25 -47 -11 -93 -23 -103 -25 -10 -2 -28 -7 -38 -10 -17
-6 -19 -4 -10 12 25 43 95 205 152 351 34 86 65 166 69 177 15 36 88 268 120
378 33 117 78 310 106 457 13 71 34 190 40 230 10 76 12 93 19 160 3 36 8 76
10 90 2 14 7 66 10 115 3 50 8 110 11 135 5 51 5 524 -1 585 -1 22 -6 76 -9
120 -9 111 -13 152 -20 210 -4 28 -8 68 -11 90 -11 110 -56 351 -100 540 -14
61 -28 120 -30 132 -32 144 -175 561 -271 787 -62 146 -242 513 -267 546 -7 8
-21 32 -31 53 -11 20 -22 37 -25 38 -9 1 -22 4 -150 33 -169 39 -492 90 -631
101 -187 15 -275 18 -460 18 -195 0 -430 -9 -477 -17 -10 -2 -47 -7 -83 -10
-88 -10 -264 -34 -325 -46 -27 -5 -61 -12 -75 -14 -314 -57 -796 -206 -1060
-327 -25 -12 -61 -28 -80 -36 -19 -9 -83 -40 -142 -69 -59 -30 -111 -54 -116
-54 -5 0 0 33 10 73 10 39 20 81 22 92 2 11 11 52 20 90 9 39 17 81 20 95 2
14 16 86 30 160 14 74 27 149 30 165 2 17 8 50 12 75 4 25 8 54 9 65 2 11 6
39 9 63 3 23 9 61 12 85 3 23 7 53 9 67 2 14 6 57 10 95 4 39 8 84 10 100 3
17 7 75 11 130 3 55 8 108 10 118 3 20 17 429 17 527 0 83 -13 464 -18 510 -1
19 -6 80 -10 135 -4 55 -9 108 -11 118 -2 10 -6 48 -9 85 -3 37 -8 78 -10 92
-2 14 -7 50 -10 80 -3 30 -10 82 -15 115 -5 33 -12 78 -16 100 -5 38 -36 214
-49 280 -24 126 -78 357 -135 570 -47 178 -180 589 -220 680 -5 11 -36 88 -68
170 -33 83 -70 173 -82 200 -12 28 -32 70 -43 95 -44 99 -218 451 -267 540
-86 155 -231 400 -241 406 -10 6 -462 6 -539 -1 -25 -2 -92 -6 -150 -9 -58 -3
-114 -8 -125 -10 -11 -2 -58 -7 -105 -11 -47 -4 -87 -8 -90 -10 -3 -2 -34 -6
-70 -10 -36 -3 -72 -8 -80 -10 -8 -3 -44 -9 -80 -14 -36 -6 -75 -12 -86 -15
-12 -2 -37 -7 -56 -10 -361 -57 -940 -235 -1353 -414 -328 -143 -828 -428
-1106 -630 -31 -22 -56 -35 -56 -29 -2 38 -14 199 -18 242 -16 154 -21 192
-36 295 -6 41 -13 93 -15 115 -3 22 -9 63 -15 91 -5 28 -12 64 -15 80 -2 16
-9 54 -15 84 -6 30 -13 69 -15 85 -9 53 -114 471 -140 557 -68 224 -181 544
-229 653 -8 17 -25 57 -39 90 -207 504 -604 1164 -946 1575 -25 30 -54 65 -65
79 -19 24 -130 152 -205 236 -124 140 -431 434 -621 595 -309 263 -740 562
-1064 739 -44 25 -95 53 -114 63 -158 89 -436 219 -678 318 l-141 58 -99 -39z"/>
<path d="M44061 41563 c-83 -21 -127 -52 -201 -143 -25 -30 -47 -57 -50 -60
-3 -3 -39 -45 -81 -95 -41 -49 -155 -187 -254 -305 -99 -118 -187 -224 -197
-235 -9 -11 -54 -65 -100 -120 -142 -169 -642 -768 -663 -794 -11 -14 -36 -43
-55 -65 -34 -39 -469 -561 -500 -599 -8 -11 -20 -24 -25 -31 -123 -138 -149
-189 -149 -296 1 -96 33 -170 105 -234 61 -55 131 -80 221 -79 125 1 202 56
352 251 11 15 23 29 26 32 3 3 100 118 214 255 115 138 229 274 254 303 25 29
54 65 66 80 11 15 33 41 49 57 15 17 35 42 44 56 26 43 46 51 74 26 13 -12 62
-53 109 -92 47 -38 99 -82 115 -96 24 -22 221 -186 299 -249 10 -8 23 -20 30
-25 6 -6 38 -33 71 -60 33 -28 71 -60 85 -72 14 -11 97 -81 186 -155 l160
-134 -54 -64 c-30 -36 -64 -76 -76 -90 -11 -14 -52 -63 -91 -110 -38 -47 -74
-90 -80 -96 -5 -6 -28 -32 -50 -59 -135 -163 -201 -241 -210 -251 -5 -7 -26
-31 -44 -54 -19 -23 -40 -48 -45 -54 -21 -22 -152 -182 -180 -218 -87 -116
-72 -300 32 -404 118 -118 310 -128 433 -22 15 13 143 163 285 333 593 713
667 800 678 810 6 6 23 26 38 47 15 20 33 42 40 50 7 7 56 65 108 128 52 63
99 120 105 126 13 14 61 71 259 309 92 110 184 220 205 245 21 25 89 106 150
180 62 74 131 157 154 184 105 123 134 191 124 296 -10 110 -87 218 -187 264
-30 13 -71 21 -121 23 -66 2 -84 -2 -135 -26 -74 -35 -82 -43 -234 -226 -69
-82 -127 -152 -130 -155 -3 -3 -106 -126 -230 -275 -123 -148 -250 -300 -281
-336 l-56 -66 -134 111 c-235 195 -753 628 -784 655 -17 14 -57 48 -90 75 -33
27 -64 53 -69 57 -5 4 42 67 103 141 145 172 137 163 195 233 28 33 52 62 55
65 4 3 35 41 71 85 35 44 67 82 70 85 15 13 315 377 336 408 50 73 61 190 28
283 -25 72 -110 157 -180 182 -68 24 -128 27 -193 10z"/>
<path d="M10540 39378 c-98 -17 -184 -84 -228 -178 -21 -44 -26 -70 -26 -135
l0 -80 243 -540 c134 -297 256 -567 271 -600 16 -33 55 -121 88 -195 33 -74
74 -166 92 -205 18 -38 63 -140 102 -225 38 -85 77 -173 87 -195 10 -22 82
-182 160 -355 78 -173 150 -333 160 -355 11 -22 58 -128 106 -235 145 -325
159 -348 242 -396 59 -35 99 -46 174 -45 120 0 226 68 276 178 28 60 37 153
21 210 -9 32 -67 167 -161 373 -14 30 -46 102 -71 159 l-47 105 54 55 c110
114 317 328 387 401 57 59 511 528 569 587 8 8 18 10 25 5 6 -5 54 -26 106
-47 52 -20 106 -42 120 -48 14 -6 27 -11 30 -12 3 -1 16 -6 30 -12 347 -146
403 -160 501 -128 88 29 149 80 191 159 73 140 18 332 -117 411 -31 19 -841
356 -1440 600 -134 54 -1498 616 -1530 630 -253 109 -324 128 -415 113z m747
-934 c32 -14 135 -57 228 -95 94 -39 184 -76 200 -84 17 -7 140 -59 275 -115
256 -106 268 -112 364 -153 l59 -25 -135 -139 c-141 -144 -190 -194 -400 -412
l-126 -131 -20 43 c-23 47 -69 150 -232 512 -62 138 -146 324 -187 415 -83
183 -95 210 -88 210 2 0 30 -12 62 -26z"/>
<path d="M46498 38475 c-2 -2 -25 -6 -53 -9 -620 -81 -1154 -455 -1451 -1018
-51 -96 -123 -277 -139 -348 -2 -8 -10 -42 -18 -75 -9 -33 -20 -87 -26 -120
-6 -33 -13 -73 -17 -90 -10 -50 -12 -385 -3 -453 30 -215 68 -359 139 -527
132 -312 328 -561 615 -783 95 -74 298 -187 435 -243 82 -33 196 -32 271 3 70
32 127 88 158 153 19 40 24 67 25 135 0 74 -3 92 -27 139 -29 54 -88 118 -129
139 -13 6 -64 29 -115 50 -225 96 -434 283 -570 510 -76 128 -143 313 -159
441 -3 25 -7 57 -10 71 -12 70 -4 247 16 355 15 83 19 97 41 165 77 239 245
470 455 626 494 367 1192 320 1627 -109 74 -74 177 -196 177 -211 0 -4 13 -24
29 -46 43 -59 107 -213 136 -326 37 -142 85 -212 176 -260 150 -77 350 -17
425 128 49 95 51 181 6 333 -131 448 -401 816 -784 1067 -71 47 -227 132 -293
158 -258 106 -481 149 -767 148 -92 -1 -169 -2 -170 -3z"/>
<path d="M8678 37254 c-2 -1 -20 -5 -41 -8 -97 -15 -200 -102 -235 -200 -29
-79 -27 -141 7 -242 40 -123 261 -766 268 -784 3 -8 7 -19 9 -25 1 -5 19 -57
39 -115 47 -136 128 -372 165 -481 16 -47 54 -157 84 -244 31 -87 54 -161 51
-163 -4 -5 -44 -7 -305 -16 -91 -4 -201 -8 -245 -11 -76 -4 -319 -14 -470 -20
-152 -6 -414 -17 -480 -20 -38 -2 -149 -7 -245 -10 -265 -10 -291 -15 -365
-66 -50 -34 -70 -58 -103 -123 -22 -42 -26 -64 -26 -131 0 -44 3 -90 6 -102
24 -79 82 -140 228 -238 58 -38 197 -133 310 -210 113 -78 270 -185 350 -240
80 -54 179 -122 220 -150 41 -28 127 -87 190 -130 63 -43 156 -106 205 -140
50 -34 155 -106 235 -160 80 -54 159 -109 176 -122 17 -13 36 -23 42 -23 6 0
12 -4 14 -8 2 -5 82 -62 178 -127 96 -66 269 -183 383 -262 115 -79 213 -143
218 -143 5 0 9 -4 9 -9 0 -4 21 -17 48 -27 70 -28 192 -26 254 5 140 68 211
221 173 370 -15 58 -62 135 -100 163 -19 15 -1031 706 -1530 1046 -252 172
-306 210 -308 218 -1 5 18 9 43 10 112 3 441 16 495 19 33 2 137 6 230 10 94
3 206 8 250 10 44 2 154 6 245 10 91 3 183 11 205 16 89 23 170 91 206 175 24
53 34 147 21 199 -10 41 -126 384 -142 420 -4 11 -21 56 -35 100 -15 44 -68
197 -117 340 -49 143 -109 318 -133 388 -24 70 -39 125 -32 121 7 -4 26 -17
42 -29 17 -12 122 -84 235 -160 234 -159 311 -211 325 -222 6 -5 57 -40 115
-79 117 -80 238 -162 570 -389 626 -428 605 -415 704 -416 100 -2 182 34 245
107 55 62 75 118 76 209 0 68 -4 89 -28 138 -34 68 -75 105 -252 225 -71 48
-179 122 -240 163 -60 42 -155 106 -210 144 -55 37 -147 100 -205 140 -58 39
-148 101 -200 136 -52 36 -151 104 -220 151 -69 47 -253 173 -410 280 -157
107 -334 228 -395 269 -60 40 -112 76 -115 79 -3 3 -32 23 -65 45 -33 23 -143
97 -245 167 -102 69 -199 133 -217 142 -28 14 -148 37 -155 30z"/>
<path d="M49875 35020 c-45 -10 -87 -17 -160 -30 -27 -5 -60 -11 -71 -14 -12
-2 -39 -7 -60 -10 -22 -4 -64 -11 -94 -16 -30 -6 -66 -12 -80 -15 -105 -18
-172 -30 -220 -40 -14 -3 -42 -8 -64 -11 -21 -3 -48 -7 -60 -10 -55 -11 -247
-44 -282 -49 -21 -4 -46 -8 -54 -10 -8 -3 -32 -7 -54 -11 -21 -3 -48 -8 -60
-10 -22 -4 -46 -9 -141 -25 -33 -5 -91 -16 -130 -24 -38 -7 -90 -16 -115 -20
-25 -3 -53 -8 -63 -11 -10 -3 -30 -7 -45 -9 -25 -4 -289 -50 -338 -59 -12 -3
-37 -7 -55 -10 -19 -3 -72 -13 -119 -21 -47 -9 -110 -20 -140 -25 -30 -6 -66
-12 -80 -15 -33 -7 -256 -46 -295 -51 -16 -3 -75 -13 -130 -24 -85 -16 -300
-55 -414 -75 -85 -15 -169 -82 -213 -172 -28 -58 -33 -78 -33 -143 0 -94 34
-170 102 -229 65 -58 131 -80 223 -76 41 2 89 6 105 9 107 22 134 27 170 31
22 3 63 10 90 15 125 25 305 54 309 49 4 -4 248 -396 301 -483 17 -27 37 -59
45 -71 8 -13 28 -45 44 -72 16 -26 108 -174 203 -327 96 -154 172 -284 170
-290 -4 -9 -185 -259 -264 -365 -86 -114 -143 -201 -153 -235 -49 -163 20
-316 175 -392 62 -29 183 -26 255 7 47 22 150 111 150 129 0 5 30 47 98 135
13 17 114 154 222 300 240 325 317 429 441 595 71 96 138 186 147 198 9 13 31
42 48 65 17 23 96 130 175 237 80 107 188 254 241 325 53 72 146 198 207 280
60 83 114 155 118 160 18 22 151 202 173 235 13 19 27 37 30 40 20 16 126 171
143 209 33 71 30 199 -5 267 -34 64 -105 128 -171 152 -54 21 -155 26 -222 12z
m-631 -772 c-20 -33 -756 -1013 -762 -1016 -4 -1 -54 73 -112 165 -261 420
-382 617 -386 628 -3 6 3 11 13 12 10 1 56 9 103 17 114 21 258 46 295 52 17
3 37 7 45 9 8 2 31 6 50 9 19 3 47 8 63 11 15 3 37 7 50 9 12 2 60 11 107 19
47 9 99 18 115 20 27 4 222 40 285 52 13 3 42 7 65 11 22 3 42 8 44 10 11 10
32 3 25 -8z"/>
<path d="M6290 33505 c-107 -22 -189 -87 -233 -184 -32 -69 -29 -178 5 -253
43 -92 85 -124 295 -223 103 -48 239 -112 301 -141 62 -30 114 -54 116 -54 2
0 64 -29 137 -64 74 -35 154 -73 179 -84 25 -11 95 -44 155 -72 61 -29 137
-65 170 -80 497 -230 712 -334 767 -371 83 -57 199 -169 254 -246 96 -135 134
-254 129 -408 -8 -276 -192 -530 -445 -615 -84 -28 -127 -34 -250 -33 -104 0
-230 20 -319 50 -42 14 -161 68 -401 181 -52 24 -122 57 -155 72 -84 39 -205
95 -305 142 -47 22 -116 55 -155 73 -119 55 -227 105 -300 140 -38 18 -99 47
-135 63 -36 16 -108 50 -160 75 -201 95 -340 159 -355 163 -144 36 -234 14
-327 -77 -46 -45 -60 -67 -76 -119 -38 -124 -11 -233 77 -320 49 -48 81 -67
251 -145 224 -103 347 -160 654 -304 398 -187 1102 -512 1146 -529 193 -73
382 -107 605 -107 206 0 355 27 501 91 17 7 40 17 51 21 11 5 62 33 113 63
155 91 325 270 440 464 72 120 146 317 176 466 18 90 24 303 12 400 -32 239
-162 501 -344 693 -193 202 -363 312 -764 495 -25 11 -85 39 -135 62 -49 23
-122 57 -160 75 -245 114 -544 254 -625 292 -52 25 -151 71 -220 103 -69 32
-174 81 -235 110 -300 142 -341 155 -435 135z"/>
<path d="M51265 32574 c-11 -3 -39 -14 -62 -25 -24 -10 -45 -19 -48 -19 -2 0
-30 -12 -62 -26 -32 -15 -103 -46 -158 -69 -149 -63 -755 -324 -790 -340 -16
-8 -131 -57 -255 -110 -124 -53 -243 -105 -265 -115 -22 -10 -132 -57 -245
-105 -224 -96 -279 -120 -325 -140 -48 -21 -84 -36 -395 -170 -394 -169 -411
-177 -458 -219 -127 -116 -130 -329 -4 -453 100 -98 241 -121 376 -59 85 39
821 354 834 358 19 5 223 -472 211 -492 -5 -8 -43 -62 -83 -120 -41 -58 -109
-154 -151 -215 -41 -60 -104 -150 -138 -200 -62 -88 -157 -225 -187 -268 -8
-12 -52 -75 -97 -140 -46 -65 -83 -123 -83 -128 0 -5 -4 -9 -9 -9 -9 0 -10 -3
-35 -78 -13 -40 -14 -128 -2 -180 10 -46 59 -118 104 -154 103 -83 249 -97
356 -34 56 33 93 76 196 224 165 238 381 547 393 562 7 8 36 51 66 95 85 126
70 120 159 60 188 -125 414 -186 672 -180 161 4 181 7 326 40 139 33 226 68
389 159 136 75 309 240 399 381 63 98 133 266 150 360 3 17 8 41 11 55 3 14 9
63 13 110 23 247 -22 495 -137 760 -72 164 -69 157 -186 430 -53 124 -107 248
-120 276 -53 109 -149 173 -269 179 -39 2 -80 2 -91 -1z m-88 -756 c16 -34 46
-102 93 -213 23 -55 56 -129 72 -164 72 -158 98 -273 93 -411 -5 -138 -16
-180 -71 -272 -68 -113 -228 -225 -381 -269 -109 -30 -286 -37 -373 -14 -187
49 -297 160 -408 415 -158 361 -195 451 -190 454 2 2 107 47 233 101 127 54
248 106 270 116 23 10 90 39 150 64 61 26 133 57 160 70 28 12 102 44 165 71
63 26 126 54 140 61 33 17 35 17 47 -9z"/>
<path d="M28537 32174 c-1 -1 -58 -5 -127 -9 -69 -4 -138 -9 -155 -11 -16 -2
-50 -6 -75 -9 -119 -13 -281 -41 -370 -61 -36 -9 -76 -18 -90 -20 -14 -3 -34
-8 -45 -11 -11 -4 -25 -8 -32 -9 -6 -1 -53 -14 -105 -29 -491 -141 -950 -380
-1360 -708 -141 -112 -424 -397 -540 -542 -255 -321 -431 -641 -560 -1015 -70
-204 -110 -378 -153 -660 -25 -162 -24 -598 0 -770 39 -264 70 -405 136 -610
58 -180 184 -466 267 -606 72 -124 114 -190 166 -264 210 -300 512 -612 791
-818 39 -28 75 -55 80 -60 42 -35 253 -167 390 -244 206 -117 605 -278 828
-334 9 -2 25 -6 35 -9 67 -19 324 -75 370 -80 31 -4 59 -8 62 -10 3 -1 30 -6
61 -9 31 -4 65 -8 75 -10 20 -4 146 -16 229 -21 64 -5 449 -5 495 -1 19 2 75
7 123 11 48 3 96 8 105 10 9 1 44 6 77 9 33 4 98 14 145 23 47 8 96 17 110 20
224 40 597 157 825 258 116 52 316 155 415 214 141 85 350 231 455 318 305
252 572 554 768 867 230 365 408 835 462 1216 3 25 10 72 15 105 41 264 29
713 -25 985 -11 51 -15 76 -20 102 -21 111 -111 408 -159 523 -9 22 -25 58
-34 80 -32 76 -142 293 -187 370 -99 167 -248 375 -361 505 -86 98 -327 334
-419 412 -472 393 -1030 666 -1650 806 -49 12 -103 23 -120 26 -16 3 -59 10
-95 16 -74 13 -90 15 -180 25 -36 4 -73 9 -82 10 -50 10 -532 26 -541 19z
m437 -1148 c50 -4 97 -9 105 -11 9 -1 41 -6 71 -10 30 -4 64 -9 75 -12 11 -2
34 -7 50 -9 123 -22 396 -103 500 -149 207 -91 340 -164 484 -263 573 -396
938 -992 1005 -1644 12 -123 13 -353 2 -438 -23 -170 -24 -175 -52 -290 -132
-561 -493 -1059 -1009 -1396 -181 -118 -475 -257 -630 -299 -16 -4 -34 -10
-40 -11 -32 -11 -246 -64 -275 -69 -19 -3 -46 -7 -60 -10 -52 -10 -83 -14
-143 -20 -34 -3 -80 -8 -102 -10 -49 -6 -378 -6 -420 -1 -16 2 -57 7 -90 10
-515 56 -1015 267 -1401 590 -169 141 -376 379 -490 561 -127 204 -250 500
-281 675 -2 14 -8 41 -14 61 -5 20 -12 57 -14 82 -3 25 -8 54 -10 65 -6 34
-17 193 -17 262 -1 73 11 291 17 299 2 4 6 31 10 61 10 78 68 300 104 399 91
245 215 459 386 666 134 162 283 299 505 463 92 69 348 204 503 266 112 45
342 115 427 131 18 3 93 18 100 20 3 0 31 5 64 9 32 4 68 9 80 11 11 2 57 7
101 10 43 3 80 7 81 8 5 5 298 0 378 -7z"/>
<path d="M4855 30211 c-74 -19 -143 -70 -191 -141 -31 -46 -57 -150 -49 -198
17 -111 83 -210 168 -251 23 -11 206 -69 407 -130 201 -60 419 -126 485 -146
66 -20 165 -50 220 -66 55 -17 114 -34 131 -40 l32 -10 -20 -62 c-11 -34 -30
-98 -43 -142 -12 -44 -48 -163 -80 -265 -31 -102 -58 -192 -60 -200 -2 -8 -42
-141 -88 -295 -47 -154 -90 -298 -96 -320 -21 -78 16 -82 -401 45 -225 69
-337 103 -365 110 -16 5 -106 32 -200 60 -356 109 -388 113 -489 67 -232 -106
-259 -421 -48 -555 26 -17 106 -48 182 -70 74 -22 369 -111 655 -197 286 -86
527 -159 535 -161 8 -2 179 -53 380 -114 201 -61 418 -127 483 -146 65 -19
138 -42 164 -50 25 -9 53 -17 62 -19 9 -2 138 -41 286 -85 364 -111 424 -127
465 -125 139 5 232 65 288 185 37 78 37 183 0 260 -52 112 -131 167 -293 206
-5 1 -62 18 -125 37 -63 19 -131 40 -150 45 -19 6 -118 36 -220 67 -102 31
-194 59 -205 62 -60 16 -409 124 -413 128 -2 2 33 127 78 277 46 150 91 300
101 333 51 175 211 703 219 722 l9 22 78 -25 c43 -14 98 -31 123 -39 25 -8
234 -71 465 -140 231 -70 455 -137 498 -151 88 -27 161 -32 226 -14 203 55
294 301 178 480 -54 83 -138 128 -352 184 -5 2 -17 5 -25 8 -8 3 -91 29 -185
57 -93 27 -440 132 -770 231 -330 100 -607 183 -615 185 -19 5 -40 11 -729
219 -588 177 -626 186 -706 167z"/>
<path d="M52315 29444 c-104 -31 -197 -57 -206 -59 -9 -2 -49 -13 -89 -25 -40
-12 -80 -23 -89 -25 -9 -2 -167 -47 -351 -100 -184 -53 -342 -98 -350 -100 -8
-2 -260 -73 -560 -158 -300 -86 -648 -185 -775 -221 -239 -67 -326 -92 -446
-126 -95 -27 -120 -42 -179 -100 -59 -59 -90 -142 -85 -230 2 -45 52 -241 94
-375 11 -32 78 -269 91 -320 5 -16 27 -95 50 -175 23 -80 57 -201 76 -270 19
-69 39 -138 45 -155 15 -48 120 -418 125 -444 9 -43 45 -103 87 -144 157 -153
409 -108 512 92 44 86 39 152 -29 391 -32 113 -94 331 -138 485 -43 154 -87
309 -98 345 -40 137 -100 351 -100 359 0 5 84 32 188 60 103 29 206 59 229 67
23 7 52 15 65 18 13 2 110 30 217 61 107 31 200 54 206 51 6 -2 17 -26 23 -52
18 -72 17 -69 57 -204 20 -69 38 -132 40 -140 1 -8 33 -121 69 -250 37 -129
74 -260 82 -290 40 -142 66 -201 109 -244 201 -208 546 -70 545 218 0 32 -23
130 -61 261 -33 116 -62 217 -64 225 -3 15 -171 611 -181 641 -3 12 12 21 68
37 130 38 501 143 573 163 93 25 141 39 193 55 70 23 77 20 90 -33 15 -60 2
-11 132 -468 106 -373 132 -463 150 -530 92 -339 119 -406 187 -465 60 -53
117 -73 208 -74 66 -1 90 4 135 25 143 68 212 216 174 374 -11 46 -45 166 -94
335 -10 36 -67 234 -125 440 -58 206 -112 398 -120 425 -8 28 -33 115 -56 195
-97 348 -115 388 -201 450 -50 36 -125 60 -187 59 -25 0 -131 -25 -236 -55z"/>
<path d="M25055 26115 c-5 -2 -22 -6 -36 -9 -38 -8 -353 -261 -548 -441 -261
-239 -513 -499 -698 -718 -43 -51 -80 -94 -83 -97 -3 -3 -50 -61 -104 -130
-53 -69 -105 -134 -113 -144 -148 -181 -445 -644 -628 -976 -54 -99 -255 -504
-255 -514 0 -3 -12 -31 -26 -63 -81 -179 -123 -285 -221 -563 -67 -190 -170
-530 -188 -620 -2 -8 -10 -40 -19 -70 -8 -30 -17 -66 -20 -80 -3 -14 -7 -34
-10 -45 -10 -44 -65 -302 -69 -330 -3 -16 -10 -55 -16 -85 -6 -30 -13 -75 -16
-100 -3 -25 -8 -52 -10 -60 -4 -17 -11 -60 -20 -135 -4 -27 -9 -63 -12 -80 -2
-16 -6 -48 -8 -69 -2 -22 -6 -62 -10 -90 -11 -88 -14 -119 -21 -198 -20 -243
-28 -456 -28 -740 1 -141 -3 -255 -8 -252 -4 3 -18 7 -30 9 -48 10 -269 77
-373 114 -377 134 -642 258 -973 455 -56 33 -111 66 -120 71 -10 6 -41 25 -70
43 -186 120 -429 128 -620 20 -265 -150 -364 -488 -228 -774 38 -79 69 -110
276 -263 484 -358 1049 -656 1615 -849 136 -46 308 -100 344 -107 13 -2 38 -9
56 -15 18 -6 41 -13 51 -15 10 -2 57 -14 104 -25 118 -28 361 -78 418 -86 26
-3 49 -7 52 -9 3 -2 34 -6 70 -10 36 -4 72 -9 81 -10 9 -2 52 -6 95 -10 43 -4
90 -8 104 -11 156 -26 947 -25 1166 1 16 1 65 6 109 10 44 4 82 8 85 10 3 1
37 6 75 10 58 5 166 22 389 61 17 2 47 9 66 14 19 5 51 12 70 15 19 3 51 10
70 15 19 5 46 11 60 14 14 2 61 14 105 26 44 11 90 23 102 26 62 13 428 129
455 144 10 6 22 10 28 10 11 0 288 109 355 139 22 10 78 36 125 57 280 128
574 293 845 475 143 96 237 161 245 169 3 3 55 43 115 90 61 46 112 86 115 89
3 3 32 28 65 56 141 117 238 207 415 385 168 168 242 249 355 385 28 33 52 62
55 65 40 38 266 344 374 507 l80 119 68 -103 c62 -94 244 -351 257 -363 3 -3
51 -61 106 -130 55 -69 104 -130 110 -136 5 -6 39 -44 75 -84 105 -117 118
-131 205 -220 76 -78 140 -139 286 -276 172 -161 509 -422 734 -569 66 -43
131 -85 145 -95 25 -16 178 -107 255 -150 102 -58 373 -193 490 -245 546 -242
1099 -398 1714 -485 74 -11 137 -18 140 -18 3 1 33 -2 66 -6 33 -4 77 -9 97
-11 235 -27 963 -27 1188 -1 19 3 62 7 95 11 33 3 80 8 105 11 25 2 56 7 70 9
14 3 43 7 65 11 22 3 47 7 55 9 8 2 33 7 55 10 23 3 50 7 60 9 11 3 65 14 120
25 106 21 420 100 495 124 212 68 290 94 384 129 374 137 838 370 1153 579 41
27 77 49 79 49 3 0 10 5 17 10 7 6 73 53 147 106 74 53 176 129 227 170 82 66
96 82 127 147 19 39 37 83 40 97 3 14 8 39 12 55 20 95 5 245 -35 344 -102
253 -372 396 -646 345 -104 -20 -151 -40 -255 -106 -87 -55 -231 -142 -250
-151 -8 -4 -31 -17 -50 -28 -119 -73 -406 -208 -621 -292 -215 -85 -309 -116
-566 -191 l-52 -15 -1 307 c-1 169 -3 334 -5 367 -10 175 -19 301 -31 410 -2
28 -7 73 -10 100 -3 28 -7 66 -9 85 -3 19 -7 51 -9 70 -15 116 -18 140 -26
190 -5 30 -11 71 -14 90 -3 19 -7 44 -9 55 -3 11 -8 38 -12 60 -14 80 -17 91
-35 185 -23 116 -73 334 -95 415 -9 33 -18 67 -20 75 -49 204 -234 753 -314
935 -5 11 -18 41 -30 67 -12 26 -21 50 -21 53 0 4 -14 34 -88 195 -128 279
-279 559 -440 820 -63 101 -208 324 -225 345 -4 6 -48 66 -98 135 -50 68 -101
138 -114 155 -13 16 -45 57 -70 89 -57 73 -119 149 -223 271 -144 169 -525
558 -691 705 -46 41 -89 80 -95 85 -6 6 -51 44 -101 85 -49 41 -99 83 -110 92
-110 92 -205 158 -242 167 -69 18 -201 13 -288 -10 -110 -28 -188 -73 -271
-154 -195 -192 -226 -500 -76 -753 39 -65 81 -110 227 -243 77 -71 344 -337
416 -414 39 -43 197 -226 262 -305 400 -480 799 -1165 1032 -1771 20 -52 40
-103 45 -114 27 -58 178 -539 194 -618 3 -12 17 -69 31 -127 15 -58 29 -116
31 -130 2 -14 9 -45 14 -70 12 -50 12 -52 40 -200 10 -58 22 -125 25 -150 3
-25 12 -88 20 -140 15 -100 20 -150 31 -265 3 -38 8 -81 10 -95 26 -159 25
-994 -1 -1200 -2 -14 -4 -31 -4 -37 -1 -10 -72 -12 -318 -8 -175 2 -331 6
-348 8 -16 3 -62 8 -102 11 -40 4 -87 9 -105 11 -18 2 -53 7 -78 10 -25 3 -85
12 -135 21 -669 113 -1274 341 -1835 693 -97 60 -319 211 -347 236 -7 5 -18
15 -25 20 -304 236 -576 496 -798 765 -34 41 -72 86 -84 100 -12 14 -32 41
-46 60 -13 19 -27 37 -30 40 -3 3 -17 21 -30 40 -13 19 -27 37 -30 40 -9 9
-69 97 -145 213 -111 171 -113 173 -193 320 l-75 137 -307 0 -308 0 -2 -107
c-2 -121 -6 -300 -14 -568 -3 -99 -5 -234 -6 -299 0 -66 -2 -117 -4 -115 -4 4
-10 187 -22 689 -3 129 -6 271 -8 315 l-2 80 -308 0 c-264 0 -310 -2 -317 -15
-16 -29 -124 -225 -134 -242 -110 -187 -332 -509 -400 -582 -6 -6 -26 -31 -45
-56 -19 -25 -39 -50 -45 -56 -5 -6 -32 -37 -60 -70 -53 -62 -369 -382 -445
-450 -70 -62 -269 -225 -330 -269 -30 -21 -57 -42 -60 -45 -22 -25 -341 -228
-510 -323 -189 -107 -520 -255 -755 -337 -150 -53 -451 -139 -545 -156 -14 -3
-52 -11 -85 -19 -53 -12 -246 -45 -345 -60 -45 -6 -110 -13 -180 -20 -30 -3
-75 -8 -100 -11 -59 -7 -646 -15 -663 -8 -7 2 -13 12 -13 22 -1 17 -14 211
-20 287 -4 52 -3 615 1 680 1 28 6 95 9 150 4 55 8 118 11 140 2 22 7 67 10
100 6 61 14 130 21 175 2 14 6 48 9 75 3 28 12 88 21 135 9 46 17 98 19 115 4
34 14 82 20 105 3 8 7 33 10 55 7 48 121 513 140 570 7 22 33 103 58 180 71
222 159 450 259 675 73 165 235 476 337 650 206 350 485 729 779 1060 94 106
417 428 534 534 177 159 250 309 251 516 1 282 -174 504 -454 573 -51 13 -229
21 -254 12z"/>
<path d="M37648 18215 c-2 -2 -55 -6 -118 -9 -63 -4 -158 -13 -210 -21 -52 -8
-113 -17 -135 -20 -133 -21 -529 -110 -795 -179 -272 -71 -419 -114 -725 -213
-216 -69 -603 -206 -700 -248 -16 -7 -97 -40 -180 -73 -167 -67 -390 -166
-565 -249 -289 -137 -896 -446 -1045 -533 -16 -10 -52 -30 -80 -45 -44 -24
-227 -128 -310 -175 -370 -213 -600 -403 -678 -562 -40 -82 -50 -123 -51 -218
-1 -112 13 -184 56 -288 74 -177 216 -326 368 -386 66 -26 76 -28 180 -32 85
-3 118 2 235 31 11 2 17 4 120 42 84 31 286 127 410 196 50 27 113 62 141 77
28 16 77 43 110 61 32 19 71 41 86 49 15 8 162 90 325 181 399 223 461 256
793 422 704 351 1242 572 1755 722 151 43 431 109 515 120 25 3 56 8 70 10 14
3 45 7 70 10 42 5 93 12 150 20 14 2 59 7 100 10 41 4 86 9 100 11 136 17 512
24 672 11 287 -22 532 -102 703 -228 175 -129 294 -333 321 -552 3 -23 7 -48
10 -56 6 -18 6 -259 0 -290 -3 -13 -8 -49 -12 -80 -3 -31 -8 -58 -9 -61 -2 -3
-6 -25 -10 -48 -12 -80 -66 -246 -106 -327 -78 -155 -219 -316 -409 -468 -72
-57 -322 -227 -334 -227 -4 0 -25 -12 -47 -26 -70 -44 -367 -189 -519 -254
-224 -95 -719 -273 -850 -305 -8 -2 -103 -29 -210 -60 -158 -45 -503 -136
-570 -150 -8 -2 -78 -18 -155 -36 -77 -17 -158 -35 -180 -40 -22 -4 -94 -20
-160 -34 -66 -14 -136 -28 -155 -31 -19 -3 -51 -9 -70 -14 -34 -9 -290 -57
-340 -65 -37 -5 -88 -14 -150 -26 -30 -6 -68 -12 -85 -14 -30 -5 -193 -32
-230 -39 -11 -2 -40 -7 -65 -10 -25 -3 -56 -8 -70 -11 -30 -5 -288 -44 -327
-50 -56 -7 -119 -16 -143 -20 -14 -2 -45 -7 -70 -10 -25 -4 -56 -8 -70 -10
-62 -9 -109 -15 -159 -21 -30 -3 -61 -7 -70 -9 -9 -1 -43 -6 -76 -9 -33 -4
-73 -9 -88 -12 -15 -2 -51 -6 -80 -9 -29 -2 -61 -6 -72 -8 -11 -3 -56 -8 -99
-12 -43 -4 -86 -8 -96 -10 -9 -2 -54 -6 -101 -10 -46 -4 -92 -9 -101 -10 -9
-2 -52 -6 -95 -10 -43 -3 -94 -8 -113 -10 -19 -2 -69 -6 -110 -10 -41 -3 -95
-8 -120 -10 -25 -3 -83 -7 -130 -10 -47 -3 -107 -7 -135 -10 -27 -3 -90 -7
-140 -10 -49 -3 -124 -8 -165 -10 -41 -3 -118 -7 -170 -10 -52 -2 -142 -7
-200 -10 -485 -24 -819 -30 -1750 -29 -835 0 -1236 5 -1685 19 -82 3 -240 7
-350 10 -344 10 -783 24 -1225 40 -63 2 -187 6 -275 10 -88 3 -187 7 -220 10
-33 2 -121 7 -195 11 -74 3 -157 7 -185 9 -27 2 -95 6 -150 10 -55 3 -118 8
-140 10 -22 2 -78 7 -125 10 -107 7 -179 13 -450 41 -85 8 -168 17 -185 19
-16 2 -57 7 -90 10 -33 3 -71 8 -85 10 -14 2 -52 7 -85 10 -68 6 -134 14 -185
21 -19 3 -57 7 -85 9 -52 5 -139 15 -165 20 -8 1 -46 6 -83 10 -37 3 -76 8
-85 9 -9 2 -48 7 -87 11 -38 4 -77 8 -85 10 -8 1 -42 6 -75 9 -33 4 -71 9 -85
11 -14 2 -44 7 -67 10 -24 3 -62 7 -85 10 -24 3 -59 8 -78 10 -30 4 -196 27
-285 40 -16 2 -48 7 -70 10 -66 9 -119 17 -135 20 -8 2 -37 6 -65 9 -27 4 -57
9 -65 11 -8 2 -37 6 -65 10 -27 3 -57 8 -65 10 -8 2 -35 6 -60 9 -25 3 -72 11
-105 17 -33 5 -73 12 -90 15 -30 5 -109 18 -175 29 -19 4 -80 15 -135 25 -55
11 -116 22 -135 25 -19 3 -89 17 -155 30 -66 13 -133 26 -150 29 -42 8 -192
41 -375 82 -85 20 -162 37 -170 39 -218 46 -962 261 -1085 314 -11 5 -67 26
-125 46 -404 146 -824 362 -1089 560 -84 63 -206 167 -251 214 -273 287 -390
564 -382 906 6 274 105 533 264 694 267 270 681 363 1373 306 132 -10 204 -17
225 -20 14 -2 50 -6 80 -10 30 -3 71 -8 90 -10 19 -3 55 -7 80 -10 526 -67
1163 -265 1830 -567 30 -14 93 -42 140 -63 47 -21 127 -57 179 -81 51 -24 95
-44 97 -44 1 0 52 -23 111 -51 59 -28 142 -67 183 -86 228 -107 833 -406 1003
-497 45 -24 141 -74 212 -111 72 -37 153 -80 180 -95 28 -15 86 -47 130 -70
93 -51 122 -67 190 -107 298 -175 661 -168 893 16 175 139 212 365 101 610
-75 165 -174 271 -409 433 -14 10 -39 28 -56 40 -119 86 -423 293 -529 360
-466 296 -962 555 -1415 738 -726 293 -1673 574 -2360 699 -63 12 -126 23
-140 26 -33 7 -66 12 -120 21 -25 3 -54 8 -65 10 -11 1 -56 8 -100 14 -44 6
-91 13 -105 15 -14 2 -54 7 -90 10 -36 4 -73 9 -82 11 -10 1 -53 6 -95 9 -43
3 -94 8 -113 10 -215 23 -824 24 -948 1 -9 -2 -46 -7 -82 -11 -78 -8 -104 -11
-150 -19 -19 -4 -62 -11 -95 -17 -33 -6 -98 -19 -145 -31 -47 -11 -92 -21
-100 -23 -55 -11 -264 -86 -360 -128 -180 -80 -311 -159 -449 -271 -354 -287
-585 -704 -681 -1230 -17 -93 -23 -143 -36 -281 -6 -67 -6 -331 0 -375 3 -19
8 -64 11 -100 9 -92 13 -120 40 -250 116 -552 434 -1012 983 -1423 193 -144
445 -311 660 -438 15 -8 92 -52 172 -96 236 -132 517 -269 805 -393 152 -66
541 -217 605 -235 14 -4 39 -13 55 -20 101 -45 836 -268 955 -291 14 -2 36 -9
50 -14 42 -16 562 -138 617 -145 11 -2 30 -6 42 -10 11 -3 33 -8 48 -11 16 -2
71 -13 123 -24 112 -22 128 -25 245 -45 50 -9 110 -20 135 -25 25 -5 63 -12
85 -15 22 -4 67 -11 100 -16 33 -5 74 -12 90 -14 17 -3 46 -7 65 -10 53 -9
298 -43 355 -50 28 -4 61 -8 75 -10 14 -2 52 -7 85 -10 33 -3 71 -8 85 -10 14
-3 52 -7 85 -10 33 -4 71 -8 85 -10 14 -2 57 -7 95 -11 39 -3 78 -8 87 -10 9
-1 48 -5 85 -9 37 -3 82 -8 98 -10 17 -2 62 -7 100 -10 39 -3 81 -8 95 -10 14
-2 61 -7 105 -10 44 -3 96 -8 115 -10 43 -6 131 -13 230 -20 41 -3 91 -7 110
-10 19 -2 78 -7 130 -10 52 -4 111 -8 130 -10 19 -2 85 -6 145 -10 61 -3 124
-8 140 -10 17 -2 84 -7 151 -10 66 -3 141 -7 165 -10 24 -2 100 -6 169 -10 69
-3 154 -8 190 -10 36 -2 126 -6 200 -10 74 -3 176 -7 225 -10 134 -7 520 -21
850 -30 433 -12 560 -15 965 -20 1023 -14 2060 -3 2880 29 276 11 407 17 495
21 50 3 140 7 200 10 61 3 148 7 195 10 47 3 128 7 180 10 98 5 213 12 335 20
39 3 111 7 160 10 50 3 117 8 150 10 33 3 96 7 140 10 196 13 253 18 409 31
43 3 99 8 125 9 73 5 202 15 246 20 22 2 74 7 115 10 76 6 106 9 215 19 33 4
85 8 115 10 50 4 100 9 215 21 22 2 67 7 100 10 33 3 78 8 100 10 22 2 67 7
100 10 33 3 76 8 95 10 19 3 62 7 95 10 33 4 76 8 95 10 19 2 81 9 137 15 56
6 110 12 120 14 10 2 49 7 85 10 37 4 75 8 85 10 25 5 99 15 158 21 28 3 73
10 100 15 28 5 73 12 100 15 47 6 205 30 250 39 11 2 40 7 65 11 25 4 54 9 65
11 11 2 34 7 50 10 17 2 86 16 155 30 69 14 136 28 150 30 66 13 346 78 430
100 147 39 383 105 400 111 18 7 15 6 68 22 184 52 653 227 840 312 35 16 65
29 67 29 4 0 194 89 304 143 575 280 1290 745 1728 1123 12 11 32 28 45 38
143 117 187 171 300 366 174 302 293 586 372 890 14 52 28 109 31 125 2 17 7
40 9 52 3 11 8 43 12 70 3 26 8 57 10 67 8 45 17 198 17 286 -1 551 -227 1020
-665 1377 -301 246 -701 436 -1188 562 -63 17 -126 32 -140 35 -229 44 -294
55 -340 60 -30 4 -66 8 -80 11 -14 2 -50 7 -80 10 -30 3 -71 8 -90 10 -104 13
-632 29 -642 20z"/>
</g>
</svg>
